# xmcd CD database file
#
# Track frame offsets:
#	150
#	16262
#	31952
#	44612
#	57665
#	72867
#	87965
#	101480
#	116545
#	129795
#	144855
#	159857
#	176540
#	192715
#	206930
#	220770
#
# Disc length: 3176 seconds
#
# Revision: 2
# Processed by: cddbd v1.5.2PL0 Copyright (c) Steve Scherf et al.
# Submitted via: CDex 1.51
#
DISCID=e00c6610
DTITLE=Various Artist - More Hot Country Request
DYEAR=1988
DGENRE=Country
TTITLE0=Loves Gonna Get You Someday/ Ricky Skaggs
TTITLE1=Never You/ Rosanne Cash
TTITLE2=Since I've Found You/Sweethearts of the Rodeo
TTITLE3=Oh Darlin/O'Kanes
TTITLE4=Living in the Promised Land/Willie Nelson
TTITLE5=A Freind In California/Merle Haggard
TTITLE6=I've Got a New Heartache/Ricky Skaggs
TTITLE7=Somebody Wants me Out of the Way/George Jones
TTITLE8=It'll be me/Exile
TTITLE9=She use to be Somebody/Larry Gatlin
TTITLE10=Doo Wah Days/Micky Gilley
TTITLE11=Always Have Always Will/ Janie Frickie
TTITLE12=Strong Heart/T.G.Sheppard
TTITLE13=Please be Love/Mark Gray
TTITLE14=Got My Heart Set on You/John Conlee
TTITLE15=Super Love /Exile
EXTD=YEAR: 1988
EXTT0=
EXTT1=
EXTT2=
EXTT3=
EXTT4=
EXTT5=
EXTT6=
EXTT7=
EXTT8=
EXTT9=
EXTT10=
EXTT11=
EXTT12=
EXTT13=
EXTT14=
EXTT15=
PLAYORDER=
